<?xml version="1.0" encoding="UTF-8"?>
<svg id="Layer_1" data-name="Layer 1" xmlns="http://www.w3.org/2000/svg" version="1.1" viewBox="0 0 974.13 825.53">
  <defs>
    <style>
      .cls-1 {
        fill: #fdb515;
      }

      .cls-1, .cls-2, .cls-3 {
        stroke-width: 0px;
      }

      .cls-2 {
        fill: #fff;
      }

      .cls-3 {
        fill: #3a1a3d;
      }
    </style>
  </defs>
  <path class="cls-1" d="M789.77,399.19c-12.46,13.77-23.21,23.85-32.27,30.24-9.06,6.39-17.88,10.85-26.44,13.36-8.57,2.51-22.03,3.77-40.39,3.77h-17.47c-15.41,0-24.34-.55-26.78-1.64-2.44-1.09-3.84-2.79-4.19-5.08-.33-3.39,1.6-9.62,5.77-18.69l64.26-139.66c6.08-13.22,10.87-21.58,14.36-25.08,3.49-3.5,8.33-6.39,14.5-8.69,6.17-2.29,15.59-3.39,28.25-3.28l2.79-6.06h-205.67l-1.66,6.04c10.74.98,17.4,2.72,19.99,5.22,2.59,2.5,3.34,5.71,2.26,9.62-1.5,5.44-6.53,13.92-15.1,25.45l-96.37,129.69-24.83-129.69c-2.21-11.53-2.56-20.01-1.06-25.45,1.08-3.91,3.6-7.12,7.57-9.62,3.97-2.5,11.59-4.24,22.87-5.22l1.66-6.04h-228.36l-2.79,6.06h9c9.06,0,14.78,2.41,17.15,7.21,1.68,3.5-.67,12.19-7.05,26.06l-65.99,143.43c-5.83,12.68-10.79,20.76-14.87,24.26-7.17,6.12-15.81,9.18-25.93,9.18h-9l-2.79,6.07h185.32l48.23-60.32-5.3-1.15c-12.46,13.77-23.21,23.85-32.27,30.24-9.06,6.39-17.88,10.85-26.44,13.36-8.57,2.51-22.03,3.77-40.39,3.77h-17.47c-15.41,0-24.34-.55-26.78-1.64-2.44-1.09-3.84-2.79-4.19-5.08-.33-3.39,1.6-9.62,5.77-18.69l64.26-139.66c6.08-13.22,10.87-21.58,14.36-25.08,3.49-3.5,8.33-6.39,14.5-8.69,6.17-2.29,15.6-3.42,50.95-3.31,7.11.55,13.65,1.77,17.4,3.67,3.75,1.9,6.62,4.54,8.62,7.91,1.27,2.18,2.84,8.16,4.71,17.94l35.86,186.72h29.02l138.86-186.72c7.27-9.79,12.14-15.77,14.61-17.94,3.86-3.37,8.18-6.01,12.98-7.91,4.79-1.9,10.89-3.12,18.28-3.67l7.91.03c9.06,0,14.78,2.41,17.15,7.21,1.68,3.5-.67,12.19-7.05,26.06l-65.99,143.43c-5.83,12.68-10.79,20.76-14.87,24.26-7.17,6.12-15.81,9.18-25.93,9.18h-9l-2.79,6.07h185.32l48.23-60.32-5.3-1.15Z"/>
  <g>
    <path class="cls-3" d="M625.99,518.45c-.58,0-1.17.04-1.77.1.34-4.45.75-8.98,1.14-13.32.53-5.94,1.04-11.55,1.3-16.22.3-5.44,1.39-8.59,2.12-10.67.43-1.25.78-2.24.78-3.21,0-2.49-1.61-4.04-4.2-4.04-1.7,0-5.48,1.31-6.97,3-1.2,1.19-3.34,4.4-5.81,8.1-4.79,7.32-14.7,19.27-17.65,20.01-.02-.15-.04-.38-.04-.71.1-1.4,4.05-14.01,7.13-18.95,2.41-3.53,3.47-5.25,3.47-6.93,0-2.39-2.36-4.2-5.48-4.2-3.69,0-6.16,4.5-8.1,8.93-.36.87-.82,2.09-1.3,3.29l-.44.57c-8.66,11.54-16.71,19-20.51,19-.82,0-1.74,0-1.74-3.03,0-1.47.56-4.29,1.1-7.02.65-3.26,1.31-6.63,1.31-8.87,0-5.16-2.73-7.89-7.89-7.89-6.18,0-14.47,4.44-21.61,11.29,2.04-5.63,4.85-13.17,6.09-15.68,29.99-9.9,40.11-35.14,40.11-45.2,0-4.74-4.5-8.05-8.53-8.05-7.66,0-18.45,9.98-28.86,26.69-3.56,5.63-6.99,11.89-10.21,18.62-1.43.3-3,.45-4.76.45-2.16,0-4.05-.28-5.54-.56,4.02-7.69,10.95-16.01,13.16-17.83,3.51-2.63,4.13-4.28,4.13-6.79,0-2.65-1.96-4.36-5.01-4.36-2.59,0-4.52,1.95-7.57,6.02-4.46,5.63-10.39,14-14.07,21.18-.52-.23-1.02-.58-1.57-.96-1.17-.81-2.62-1.83-4.72-1.83-3.07,0-5.48,2.41-5.48,5.48,0,3.64,4.26,5.68,7.27,6.43-1.57,3.13-3.04,6.25-4.37,9.31-1.1.79-2.12,2-3.4,3.6-6.17,8.23-17.85,19.64-23.71,19.64-3.16,0-3.83-3.31-3.83-6.08,0-3.3,2.13-11.75,4.79-16.19l2.15-1.7c6.35-4.98,13.54-10.62,22.94-22.47,13.04-16.66,14.44-26.62,14.44-30.13,0-3.99-3.9-8.05-7.73-8.05-10.24,0-17.96,9.74-27.12,25.45-7.3,12.55-14.11,28.42-17.41,40.55-7.86,9.95-15.44,16.36-19.36,16.36-.15,0-.62-.72-.62-2.38,0-2.24.96-5.24,2.72-8.47,1.32-2.51,2.76-4.87,4.04-6.96,2.42-3.96,3.68-6.09,3.68-7.69,0-2.81-2.37-4.84-5.64-4.84-2.33,0-3.62,1.63-4.48,2.71-.1.13-.22.28-.3.41-.09-.08-.19-.16-.29-.25-1.38-1.19-3.7-3.18-6.35-3.18-9.78.11-21.81,8.44-27.78,19.09-8.45,9.38-16.97,14.14-25.34,14.14-3.25,0-3.35-3-3.35-3.35,0-1.17,0-1.36,1.91-1.78,9.98-2.25,25.07-11.85,25.07-21.18,0-3.99-4.33-7.09-8.05-7.09-2.75,0-5.7.68-8.63,1.97-1.56-1.71-4.82-1.89-6.45-1.97-1.01,0-2.33-.05-3.94-.11-1.92-.07-4.23-.16-6.84-.19,9.75-18.91,18.72-32.52,22.7-36.34.83-.79,1.59-1.44,2.27-2.02,2.04-1.75,3.65-3.13,3.65-5.46,0-2.61-1.99-5.32-5.32-5.32-2.09,0-4.53,1.5-7.07,4.38-8.61,10.37-17.99,25.48-27.89,44.94-9.05.37-17.27,1.03-25.01,2.03,5.07-10.75,12.31-27.41,12.31-34.79,0-6.98-5.3-12.87-11.58-12.87-21.69,0-55.25,23.91-55.25,39.36,0,3.83,2.05,6.12,5.48,6.12,2.11,0,5.64-1.07,5.64-8.21,0-7.82,24.85-26.95,41.24-26.95,2.46,0,3.51,1,3.51,3.35,0,6.11-7.53,23.08-13.35,35.62-21.22,4.07-28.39,13.26-28.39,16.88,0,3.19,2.6,5.16,5,5.16,2.95,0,4.04-2.25,4.69-3.6.14-.28.27-.56.36-.71.15-.21,3.52-4.8,13.59-7.99-4.67,8.89-9.47,17.31-12.31,21.56l-.71,1.02c-1.51,2.16-2.6,3.73-2.6,5.42,0,2.58,1.81,5.32,5.16,5.32,2.54,0,4.06-2.18,6.16-5.19l.54-.78c4.69-7.38,10.9-18.8,16.28-29.95,7.55-1.07,15.8-1.78,25.13-2.19-8.55,19.32-13.61,36.68-13.61,46.77,0,3.79,4.03,6.12,6.93,6.12,3.55,0,3.55-3.75,3.55-5.16,0-11.12,4.68-26.33,14.71-47.8,3.05.08,5.86.23,8.36.35,1.22.06,2.36.12,3.43.16-3.35,3.48-6.17,7.78-8.4,12.83-1.75,1.03-3.06,3.08-3.06,4.92,0,.97.15,1.61.28,2.17.11.49.2.88.2,1.52,0,6.03,5.39,11.74,11.1,11.74,8.04,0,15.78-2.73,23.58-8.34,0,.1,0,.19,0,.29,0,4.49,3.75,7.74,6.28,7.74,3.93,0,8.91-2.94,17.2-10.18,1.26-1.14,2.39-2.26,3.38-3.24.49-.48,1.03-1.02,1.5-1.48-.02.37-.06.76-.09,1.16-.09,1.05-.18,2.15-.18,3.11,0,5.3,3.71,9.01,9.01,9.01,5.79,0,13.23-5.63,19.23-11.28.08,8.06,6.8,13.05,13.03,13.05,6.54,0,14.73-6.23,21.48-12.69-.95,3.93-1.44,7.31-1.44,10.09,0,5.45,2.67,7.89,5.32,7.89,3.09,0,5-2.43,5-4.68,0-.93-.27-1.64-.51-2.27-.24-.64-.45-1.19-.45-2.06,0-7.62,5.04-22.69,12.04-36.16,2.3.28,4.93.53,7.84.53,1.15,0,2.27,0,3.44-.07-6.91,16.22-11.01,30.55-11.01,35.37,0,3.64,1.97,6.28,4.68,6.28,2.05,0,4.76-.96,6.06-5.55,2.38-8.24,17.52-23.19,23.48-23.19.93,0,.94,0,.94,1.42,0,.44-.4,2.15-.75,3.65-.74,3.16-1.66,7.09-1.66,9.84,0,9.44,5.77,11.43,10.62,11.43,4.38,0,10.13-3.5,17.49-10.67-.23,1.23-.34,2.21-.34,2.94,0,5.42,3.51,7.89,6.77,7.89,8.42,0,20.16-15.08,24.83-21.59-.23,2.78-1.66,17.04-2.92,29.23-3.21,1.4-14.91,6.98-24.6,17.68-12.37,13.55-16.76,26.73-16.76,33.9,0,8.15,6.68,13.19,12.86,13.19,21.73,0,34.76-35.09,38.08-57.91.76-.14,1.62-.22,2.38-.22,4.36,0,6.24,1.37,6.24,2.07s-.11,1.23-.21,1.79c-.14.76-.27,1.53-.27,2.54,0,3.13,1.99,5,5.32,5,3.98,0,6.44-3.84,6.44-7.4,0-8.62-8.84-12.55-17.05-12.55ZM585.37,577.89c-2.57,0-4.98-1.93-4.98-5.14,0-6.11,3.54-17.82,12.69-27.78,10.43-11.56,20.55-16.7,21.19-17.02-1.44,17.02-13.49,49.94-28.9,49.94ZM577.19,426.96c1.28,0,2.41.48,2.41,2.25,0,4.17-8.51,26.17-31.63,34.84,0,0,4.5-8.35,8.99-15.73,8.03-13.01,15.89-21.35,20.23-21.35ZM513.3,428.09c1.61,0,2.41.64,2.41,2.25,0,3.85-1.93,8.67-11.4,21.68-8.67,11.72-16.7,18.79-18.79,19.75.48-2.57,2.41-9.31,10.92-24.24,8.19-14.93,14.77-19.43,16.86-19.43ZM424.04,503.39c-1.28,0-1.93-.96-1.93-1.93,0-7.87,14.13-22.96,21.03-22.96,1.28,0,1.77.96,1.77,1.93,0,1.77,2.73,1.28,2.73,2.09,0,2.73-20.87,20.87-23.6,20.87ZM407.83,480.11c0,3.37-12.68,12.36-18.3,12.52,2.41-3.85,11.4-14.13,16.38-14.13,1.28,0,1.93.32,1.93,1.61Z"/>
    <g>
      <path class="cls-2" d="M625.99,516.99c-.06,0-.12,0-.18,0,.31-3.89.66-7.81,1-11.63.53-5.95,1.04-11.57,1.3-16.25.29-5.24,1.3-8.15,2.04-10.28.46-1.33.86-2.47.86-3.69,0-3.29-2.28-5.5-5.67-5.5-2.03,0-6.2,1.38-8.13,3.55-1.09,1.08-2.87,3.7-5.66,7.88l-.21.31c-3.49,5.34-10.28,13.84-14.34,17.6,1.26-4.16,4.04-12.13,6.27-15.69,2.31-3.38,3.66-5.46,3.66-7.66,0-3.23-2.99-5.66-6.95-5.66-4.53,0-7.31,4.95-9.44,9.78-.35.83-.76,1.9-1.19,3.09-.13.17-.26.33-.4.52-9.47,12.63-16.65,18.39-19.31,18.39-.04,0-.08,0-.12,0-.07-.22-.16-.68-.16-1.56,0-1.32.54-4.08,1.07-6.74.66-3.33,1.34-6.77,1.34-9.16,0-5.95-3.41-9.36-9.36-9.36-5.28,0-11.99,3.02-18.29,7.95,1.46-3.92,2.94-7.75,3.82-9.67,30.58-10.37,40.52-35.64,40.52-46.4,0-5.61-5.27-9.52-10-9.52-8.17,0-19.43,10.24-30.11,27.39-3.47,5.49-6.82,11.57-9.96,18.08-1.14.19-2.36.28-3.76.28-1.17,0-2.26-.09-3.25-.21,3.98-6.96,9.85-13.97,11.86-15.62,3.42-2.56,4.61-4.57,4.61-7.88,0-3.48-2.6-5.83-6.47-5.83-3.51,0-5.85,2.75-8.77,6.63-4.18,5.27-9.7,13.04-13.45,19.97-.05-.03-.1-.07-.15-.11-1.27-.88-3-2.09-5.56-2.09-.9,0-1.76.16-2.54.46.01-.01.02-.03.03-.04,13.33-17.03,14.77-27.38,14.77-31.04,0-4.8-4.56-9.52-9.2-9.52-10.94,0-18.97,10.02-28.39,26.18-7.3,12.54-14.12,28.4-17.48,40.61-6.71,8.44-13.47,14.51-17.12,15.45-.03-.21-.05-.47-.05-.79,0-1.97.92-4.8,2.53-7.75,1.32-2.51,2.75-4.85,4.01-6.92,2.63-4.3,3.89-6.46,3.89-8.46,0-3.65-2.99-6.31-7.11-6.31-2.43,0-3.99,1.35-4.98,2.48-1.56-1.28-3.78-2.8-6.42-2.8-10.38.13-22.56,8.44-29.1,19.82-8.09,8.9-16.17,13.42-24.04,13.42-1.64,0-1.88-1.18-1.88-1.88,0-.05,0-.1,0-.14.17-.06.41-.13.75-.2,10.7-2.42,26.22-12.42,26.22-22.61,0-4.9-5.03-8.55-9.52-8.55-2.67,0-5.52.59-8.35,1.73-2.07-1.49-5.13-1.65-6.58-1.72-1.15,0-2.46-.05-4.04-.11-1.33-.05-2.84-.11-4.5-.15,10.19-19.49,18.39-31.04,21.33-33.87.8-.76,1.54-1.4,2.2-1.96,2.14-1.84,4.16-3.57,4.16-6.58,0-3.34-2.54-6.79-6.79-6.79-2.53,0-5.34,1.68-8.14,4.85-8.62,10.39-17.93,25.34-27.73,44.52-7.73.33-14.87.88-21.64,1.68,5.6-12.09,11.32-26.12,11.32-33.01,0-7.77-5.98-14.33-13.05-14.33-22.79,0-56.72,24.42-56.72,40.83,0,4.68,2.66,7.59,6.95,7.59,1.67,0,7.11-.7,7.11-9.68,0-6.1,23.67-25.48,39.77-25.48,1.87,0,2.04.52,2.04,1.88,0,6.24-9.06,26.06-12.9,34.33-19.88,3.99-28.84,12.95-28.84,18.17,0,3.65,2.9,6.63,6.47,6.63,3.87,0,5.32-2.99,6.01-4.42.11-.23.21-.46.33-.65,0,0,0,0,0,0,0,0,2.41-3.19,9.21-6.01-4.05,7.55-7.99,14.38-10.45,18.08l-.68.97c-1.6,2.29-2.87,4.11-2.87,6.27,0,3.87,2.85,6.79,6.63,6.79,3.31,0,5.09-2.57,7.35-5.82l.51-.73c4.68-7.36,10.76-18.51,16.09-29.5,6.65-.91,13.85-1.56,21.86-1.96-8.05,18.63-12.79,35.3-12.79,45.19,0,4.7,4.89,7.59,8.39,7.59,1.88,0,5.02-.86,5.02-6.63,0-10.75,4.51-25.5,14.16-46.3,2.65.08,5.11.21,7.32.32.14,0,.28.01.42.02-2.49,3.03-4.64,6.54-6.43,10.51-1.98,1.35-3.37,3.71-3.37,5.92,0,1.14.18,1.93.32,2.51.1.45.17.72.17,1.19,0,6.79,6.11,13.21,12.57,13.21,7.64,0,15.01-2.36,22.38-7.2,1.03,4.27,4.78,6.89,7.48,6.89,4.38,0,9.47-2.95,18.15-10.52.79-.72,1.53-1.42,2.21-2.08,0,.17,0,.34,0,.51,0,6.17,4.31,10.48,10.48,10.48,4.76,0,10.83-3.26,18.09-9.7,1.52,7.16,8.06,11.47,14.17,11.47s12.9-4.58,19.12-10.02c-.37,2.2-.55,4.19-.55,5.95,0,6.46,3.41,9.36,6.79,9.36,3.99,0,6.47-3.19,6.47-6.15,0-1.19-.35-2.12-.61-2.79-.22-.59-.36-.94-.36-1.54,0-7.24,4.75-21.54,11.42-34.58,2.1.23,4.44.42,7,.42.4,0,.8,0,1.2,0-5.87,14.18-10.24,28.46-10.24,33.83,0,4.42,2.64,7.75,6.15,7.75,2.09,0,5.84-.86,7.48-6.63,2.08-7.19,15.87-21.18,21.53-22.07-.07.51-.42,2.01-.7,3.23-.76,3.23-1.7,7.26-1.7,10.17,0,8.19,4.4,12.89,12.08,12.89,4.23,0,9.32-2.71,15.7-8.44.32,5.9,4.41,8.6,8.22,8.6,7.53,0,16.97-10.35,22.88-17.96-.56,5.65-1.48,14.73-2.35,23.13-4.13,1.88-15.09,7.5-24.32,17.69-12.64,13.86-17.13,27.46-17.13,34.89,0,8.08,6.43,14.66,14.33,14.66,22.3,0,35.72-34.75,39.37-58.07.37-.04.74-.06,1.09-.06,2.86,0,4.29.64,4.76.97-.03.38-.09.74-.17,1.17-.13.73-.29,1.63-.29,2.8,0,3.93,2.66,6.47,6.79,6.47,4.89,0,7.91-4.61,7.91-8.87,0-9.63-9.6-14.02-18.51-14.02ZM636.59,538.41c-3.33,0-5.32-1.87-5.32-5,0-1.01.14-1.78.27-2.54.1-.56.21-1.11.21-1.79s-1.88-2.07-6.24-2.07c-.76,0-1.62.08-2.38.22-3.32,22.82-16.36,57.91-38.08,57.91-6.19,0-12.86-5.04-12.86-13.19,0-7.17,4.39-20.35,16.76-33.9,9.7-10.71,21.4-16.28,24.6-17.68,1.26-12.19,2.7-26.44,2.92-29.23-4.67,6.51-16.42,21.59-24.83,21.59-3.26,0-6.77-2.47-6.77-7.89,0-.73.11-1.7.34-2.94-7.37,7.17-13.12,10.67-17.49,10.67-4.84,0-10.62-1.98-10.62-11.43,0-2.74.92-6.68,1.66-9.84.35-1.5.75-3.21.75-3.65,0-1.42-.02-1.42-.94-1.42-5.96,0-21.1,14.95-23.48,23.19-1.3,4.59-4.02,5.55-6.06,5.55-2.71,0-4.68-2.64-4.68-6.28,0-4.82,4.09-19.15,11.01-35.37-1.17.07-2.29.07-3.44.07-2.91,0-5.54-.26-7.84-.53-7.01,13.46-12.04,28.54-12.04,36.16,0,.87.21,1.43.45,2.06.24.63.51,1.34.51,2.27,0,2.25-1.91,4.68-5,4.68-2.65,0-5.32-2.44-5.32-7.89,0-2.79.48-6.17,1.44-10.09-6.75,6.46-14.94,12.69-21.48,12.69s-12.95-4.98-13.03-13.05c-6,5.64-13.44,11.28-19.23,11.28-5.31,0-9.01-3.71-9.01-9.01,0-.96.09-2.07.18-3.11.03-.4.07-.79.09-1.16-.47.46-1.01,1-1.5,1.48-.99.97-2.12,2.1-3.38,3.24-8.29,7.24-13.27,10.18-17.2,10.18-2.53,0-6.28-3.25-6.28-7.74,0-.1,0-.19,0-.29-7.8,5.61-15.54,8.34-23.58,8.34-5.71,0-11.1-5.71-11.1-11.74,0-.63-.09-1.02-.2-1.52-.13-.57-.28-1.2-.28-2.17,0-1.83,1.31-3.88,3.06-4.92,2.23-5.04,5.05-9.34,8.4-12.83-1.07-.05-2.21-.1-3.43-.16-2.5-.13-5.31-.27-8.36-.35-10.03,21.48-14.71,36.68-14.71,47.8,0,1.41,0,5.16-3.55,5.16-2.89,0-6.93-2.33-6.93-6.12,0-10.08,5.07-27.45,13.61-46.77-9.33.4-17.58,1.12-25.13,2.19-5.38,11.16-11.59,22.58-16.28,29.95l-.54.78c-2.1,3.02-3.61,5.19-6.16,5.19-3.35,0-5.16-2.74-5.16-5.32,0-1.7,1.09-3.26,2.6-5.42l.71-1.02c2.84-4.25,7.63-12.67,12.31-21.56-10.07,3.2-13.44,7.78-13.59,7.99-.09.15-.22.43-.36.71-.65,1.35-1.74,3.6-4.69,3.6-2.4,0-5-1.97-5-5.16,0-3.62,7.17-12.81,28.39-16.88,5.83-12.55,13.35-29.52,13.35-35.62,0-2.35-1.05-3.35-3.51-3.35-16.39,0-41.24,19.14-41.24,26.95,0,7.14-3.54,8.21-5.64,8.21-3.43,0-5.48-2.29-5.48-6.12,0-15.45,33.57-39.36,55.25-39.36,6.28,0,11.58,5.89,11.58,12.87,0,7.38-7.24,24.04-12.31,34.79,7.74-1,15.96-1.66,25.01-2.03,9.9-19.45,19.28-34.57,27.89-44.94,2.54-2.88,4.97-4.38,7.07-4.38,3.33,0,5.32,2.71,5.32,5.32,0,2.33-1.61,3.71-3.65,5.46-.67.58-1.44,1.23-2.27,2.02-3.98,3.82-12.96,17.43-22.7,36.34,2.61.04,4.92.12,6.84.19,1.6.06,2.93.11,3.94.11,1.63.08,4.89.26,6.45,1.97,2.92-1.29,5.88-1.97,8.63-1.97,3.72,0,8.05,3.1,8.05,7.09,0,9.33-15.09,18.93-25.07,21.18-1.91.42-1.91.6-1.91,1.78,0,.34.09,3.35,3.35,3.35,8.37,0,16.89-4.76,25.34-14.14,5.98-10.66,18-18.98,27.78-19.09,2.65,0,4.97,1.99,6.35,3.18.1.09.2.18.29.25.08-.13.2-.28.3-.41.86-1.08,2.15-2.71,4.48-2.71,3.27,0,5.64,2.03,5.64,4.84,0,1.6-1.26,3.73-3.68,7.69-1.27,2.09-2.72,4.45-4.04,6.96-1.76,3.23-2.72,6.23-2.72,8.47,0,1.67.47,2.38.62,2.38,3.92,0,11.5-6.41,19.36-16.36,3.3-12.12,10.12-28,17.41-40.55,9.15-15.72,16.88-25.45,27.12-25.45,3.83,0,7.73,4.06,7.73,8.05,0,3.51-1.41,13.47-14.44,30.13-9.4,11.85-16.59,17.49-22.94,22.47l-2.15,1.7c-2.65,4.44-4.79,12.89-4.79,16.19,0,2.77.67,6.08,3.83,6.08,5.86,0,17.54-11.41,23.71-19.64,1.28-1.61,2.3-2.82,3.4-3.6,1.34-3.07,2.8-6.19,4.37-9.31-3.01-.75-7.27-2.79-7.27-6.43,0-3.07,2.41-5.48,5.48-5.48,2.1,0,3.55,1.01,4.72,1.83.55.38,1.05.73,1.57.96,3.69-7.18,9.61-15.56,14.07-21.18,3.06-4.07,4.98-6.02,7.57-6.02,3.04,0,5.01,1.71,5.01,4.36,0,2.51-.62,4.16-4.13,6.79-2.2,1.82-9.13,10.15-13.16,17.83,1.49.28,3.38.56,5.54.56,1.76,0,3.33-.15,4.76-.45,3.22-6.73,6.66-12.99,10.21-18.62,10.4-16.71,21.19-26.69,28.86-26.69,4.04,0,8.53,3.31,8.53,8.05,0,10.07-10.12,35.3-40.11,45.2-1.24,2.51-4.06,10.05-6.09,15.68,7.15-6.85,15.44-11.29,21.61-11.29,5.16,0,7.89,2.73,7.89,7.89,0,2.24-.67,5.61-1.31,8.87-.54,2.73-1.1,5.56-1.1,7.02,0,3.03.93,3.03,1.74,3.03,3.8,0,11.85-7.46,20.51-19l.44-.57c.47-1.2.93-2.42,1.3-3.29,1.94-4.43,4.41-8.93,8.1-8.93,3.12,0,5.48,1.8,5.48,4.2,0,1.68-1.06,3.4-3.47,6.93-3.08,4.93-7.03,17.55-7.13,18.95,0,.33.02.56.04.71,2.95-.74,12.86-12.69,17.65-20.01,2.47-3.7,4.62-6.91,5.81-8.1,1.49-1.68,5.28-3,6.97-3,2.59,0,4.2,1.55,4.2,4.04,0,.97-.34,1.96-.78,3.21-.72,2.08-1.81,5.23-2.12,10.67-.27,4.67-.77,10.28-1.3,16.22-.39,4.35-.8,8.87-1.14,13.32.61-.06,1.19-.1,1.77-.1,8.21,0,17.05,3.93,17.05,12.55,0,3.56-2.46,7.4-6.44,7.4ZM513.16,472.17c-1.23,2.51-2.4,5.01-3.48,7.48-1.12.88-2.12,2.08-3.33,3.59-6.82,9.09-17.73,19.13-22.59,19.13-.58,0-2.36,0-2.36-4.61,0-3.01,2.01-10.98,4.45-15.21.64-.51,1.29-1.02,1.94-1.53,5.4-4.24,11.41-8.95,18.84-17.49-.08.43-.12.87-.12,1.32,0,3.75,3.44,6.13,6.66,7.32Z"/>
      <path class="cls-2" d="M579.6,429.21c0-1.77-1.13-2.25-2.41-2.25-4.34,0-12.2,8.35-20.23,21.35-4.5,7.39-8.99,15.73-8.99,15.73,23.12-8.67,31.63-30.67,31.63-34.84ZM558.21,449.09c8.76-14.19,15.98-20.66,18.98-20.66.94,0,.94.24.94.78,0,3.5-7.39,22.62-26.84,31.84,1.73-3.11,4.33-7.72,6.92-11.96Z"/>
      <path class="cls-2" d="M504.31,452.01c9.47-13.01,11.4-17.82,11.4-21.68,0-1.61-.8-2.25-2.41-2.25-2.09,0-8.67,4.5-16.86,19.43-8.51,14.93-10.44,21.68-10.92,24.24,2.09-.96,10.12-8.03,18.79-19.75ZM488.11,467.98c1.35-3.86,4.09-10.07,9.61-19.76,8.45-15.41,14.69-18.66,15.57-18.67.94,0,.94.12.94.78,0,3.43-1.86,8.1-11.11,20.8-5.93,8.01-11.55,13.79-15.02,16.84Z"/>
      <path class="cls-2" d="M444.91,480.43c0-.96-.48-1.93-1.77-1.93-6.9,0-21.03,15.09-21.03,22.96,0,.96.64,1.93,1.93,1.93,2.73,0,23.6-18.14,23.6-20.87,0-.8-2.73-.32-2.73-2.09ZM424.04,501.92c-.14,0-.46,0-.46-.46,0-6.83,13.35-21.49,19.56-21.49l.2.03s.1.17.1.43c0,1.75,1.33,2.45,2.26,2.76-3.1,4.3-18.95,18.11-21.66,18.73Z"/>
      <path class="cls-2" d="M407.83,480.11c0-1.28-.64-1.61-1.93-1.61-4.98,0-13.97,10.28-16.38,14.13,5.62-.16,18.3-9.15,18.3-12.52ZM393.1,490.23c3.74-4.58,9.76-10.27,12.81-10.27.46,0,.6.05.46.13-.1,1.85-7.62,7.82-13.26,10.13Z"/>
      <path class="cls-2" d="M593.08,544.97c-9.15,9.95-12.69,21.67-12.69,27.78,0,3.21,2.41,5.14,4.98,5.14,15.41,0,27.46-32.92,28.9-49.94-.64.32-10.76,5.46-21.19,17.02ZM585.37,576.42c-1.74,0-3.51-1.26-3.51-3.67,0-6.46,3.85-17.59,12.31-26.8,7.38-8.17,14.66-13.11,18.33-15.32-2.37,17.21-13.64,45.78-27.12,45.78Z"/>
    </g>
  </g>
</svg>