<svg width="644" height="347" viewBox="0 0 644 347" fill="none" xmlns="http://www.w3.org/2000/svg">
<path d="M207.17 194.94L233.54 161.95L228.24 160.8C218.11 172 209.11 180.75 201.23 187.07C203.97 188.81 206.12 191.62 207.17 194.93V194.94Z" fill="#FDB515"/>
<path d="M191.95 198.42C177.08 198.42 155.76 214.96 152.59 222.29H185.32L188.13 218.77C191.24 211.3 193.99 203.74 193.99 200.3C193.99 198.93 193.81 198.42 191.95 198.42Z" fill="#FDB515"/>
<path d="M129.15 208.18H111.68C96.26 208.18 87.34 207.63 84.9 206.54C82.46 205.45 81.06 203.75 80.71 201.46C80.38 198.07 82.31 191.84 86.48 182.77L150.73 43.11C156.81 29.89 161.6 21.53 165.09 18.03C168.58 14.53 173.42 11.64 179.59 9.33999C185.76 7.04999 195.19 5.91999 230.54 6.02999C237.65 6.57999 244.19 7.79999 247.94 9.69999C251.69 11.6 254.56 14.24 256.56 17.61C257.83 19.79 259.4 25.77 261.27 35.55L297.13 222.27H326.15L332.4 213.86C333.87 210.99 335.38 208.19 336.92 205.55C343.5 194.25 349.41 185.96 356.1 181.99L465.01 35.55C472.28 25.76 477.15 19.78 479.62 17.61C483.48 14.24 487.8 11.6 492.6 9.69999C497.39 7.79999 503.49 6.57999 510.88 6.02999L518.79 6.05999C527.85 6.05999 533.57 8.46999 535.94 13.27C537.62 16.77 535.27 25.46 528.89 39.33L462.9 182.76C457.07 195.44 452.11 203.52 448.03 207.02C441.57 212.53 433.92 215.55 425.07 216.1C423.26 218.21 421.22 220.28 418.93 222.27H595.62L643.85 161.95L638.55 160.8C626.09 174.57 615.34 184.65 606.28 191.04C597.22 197.43 588.4 201.89 579.84 204.4C571.27 206.91 557.81 208.17 539.45 208.17H521.98C506.57 208.17 497.64 207.62 495.2 206.53C492.76 205.44 491.36 203.74 491.01 201.45C490.68 198.06 492.61 191.83 496.78 182.76L561.04 43.1C567.12 29.88 571.91 21.52 575.4 18.02C578.89 14.52 583.73 11.63 589.9 9.32999C596.07 7.03999 605.49 5.93999 618.15 6.04999L620.94 -0.0100098H415.27L413.61 6.02999C424.35 7.00999 431.01 8.74999 433.6 11.25C436.19 13.75 436.94 16.96 435.86 20.87C434.36 26.31 429.33 34.79 420.76 46.32L324.39 176.01L299.56 46.32C297.35 34.79 297 26.31 298.5 20.87C299.58 16.96 302.1 13.75 306.07 11.25C310.04 8.74999 317.66 7.00999 328.94 6.02999L330.6 -0.0100098H102.27L99.48 6.04999H108.48C117.54 6.04999 123.26 8.45999 125.63 13.26C127.31 16.76 124.96 25.45 118.58 39.32L52.59 182.77C46.76 195.45 41.8 203.53 37.72 207.03C30.55 213.15 21.91 216.21 11.79 216.21H2.79L0 222.28H138.66C139.93 217.59 143.4 212.49 148.24 207.62C142.6 208 136.25 208.19 129.15 208.19V208.18Z" fill="#FDB515"/>
<path d="M474.8 280.07C474.22 280.07 473.63 280.11 473.03 280.17C473.37 275.72 473.78 271.19 474.17 266.85C474.7 260.91 475.21 255.3 475.47 250.63C475.77 245.19 476.86 242.04 477.59 239.96C478.02 238.71 478.37 237.72 478.37 236.75C478.37 234.26 476.76 232.71 474.17 232.71C472.47 232.71 468.69 234.02 467.2 235.71C466 236.9 463.86 240.11 461.39 243.81C456.6 251.13 446.69 263.08 443.74 263.82C443.72 263.67 443.7 263.44 443.7 263.11C443.8 261.71 447.75 249.1 450.83 244.16C453.24 240.63 454.3 238.91 454.3 237.23C454.3 234.84 451.94 233.03 448.82 233.03C445.13 233.03 442.66 237.53 440.72 241.96C440.36 242.83 439.9 244.05 439.42 245.25L438.98 245.82C430.32 257.36 422.27 264.82 418.47 264.82C417.65 264.82 416.73 264.82 416.73 261.79C416.73 260.32 417.29 257.5 417.83 254.77C418.48 251.51 419.14 248.13 419.14 245.9C419.14 240.74 416.41 238.01 411.25 238.01C405.07 238.01 396.78 242.45 389.64 249.3C391.68 243.67 394.49 236.13 395.73 233.62C425.72 223.72 435.84 198.48 435.84 188.42C435.84 183.68 431.34 180.37 427.31 180.37C419.65 180.37 408.86 190.35 398.45 207.06C394.89 212.69 391.46 218.95 388.24 225.68C386.81 225.98 385.24 226.13 383.48 226.13C381.32 226.13 379.43 225.85 377.94 225.57C381.96 217.88 388.89 209.56 391.1 207.74C394.61 205.11 395.23 203.46 395.23 200.95C395.23 198.3 393.27 196.59 390.22 196.59C387.63 196.59 385.7 198.54 382.65 202.61C378.19 208.24 372.26 216.61 368.58 223.79C368.06 223.56 367.56 223.21 367.01 222.83C365.84 222.02 364.39 221 362.29 221C359.22 221 356.81 223.41 356.81 226.48C356.81 230.12 361.07 232.16 364.08 232.91C362.51 236.04 361.04 239.16 359.71 242.22C358.61 243.01 357.59 244.22 356.31 245.82C350.14 254.05 338.46 265.46 332.6 265.46C329.44 265.46 328.77 262.15 328.77 259.38C328.77 256.08 330.9 247.63 333.56 243.19L335.71 241.49C342.06 236.51 349.25 230.87 358.65 219.02C371.69 202.36 373.09 192.4 373.09 188.89C373.09 184.9 369.19 180.84 365.36 180.84C360.94 180.84 356.99 182.66 353.19 185.98C351.69 187.29 350.22 188.84 348.74 190.6C348.72 190.63 348.7 190.65 348.68 190.68C348.41 191 348.14 191.33 347.88 191.67C347.85 191.71 347.81 191.75 347.78 191.8C347.52 192.12 347.27 192.46 347.01 192.79C346.97 192.84 346.93 192.89 346.89 192.94C346.63 193.28 346.38 193.62 346.12 193.97C346.08 194.02 346.05 194.07 346.01 194.12C345.75 194.48 345.48 194.85 345.22 195.23C345.19 195.27 345.17 195.3 345.14 195.34C344.86 195.75 344.57 196.16 344.28 196.58C344.28 196.58 344.28 196.59 344.27 196.6C342.3 199.5 340.3 202.75 338.23 206.3C330.93 218.85 324.12 234.72 320.82 246.85C312.96 256.8 305.38 263.21 301.46 263.21C301.31 263.21 300.84 262.49 300.84 260.83C300.84 258.59 301.8 255.59 303.56 252.36C304.88 249.85 306.32 247.49 307.6 245.4C310.02 241.44 311.28 239.31 311.28 237.71C311.28 234.9 308.91 232.87 305.64 232.87C303.31 232.87 302.02 234.5 301.16 235.58C301.06 235.71 300.94 235.86 300.86 235.99C300.77 235.91 300.67 235.83 300.57 235.74C299.19 234.55 296.87 232.56 294.22 232.56C284.44 232.67 272.41 241 266.44 251.65C257.99 261.03 249.47 265.79 241.1 265.79C237.85 265.79 237.75 262.79 237.75 262.44C237.75 261.27 237.75 261.08 239.66 260.66C249.64 258.41 264.73 248.81 264.73 239.48C264.73 235.49 260.4 232.39 256.68 232.39C253.93 232.39 250.98 233.07 248.05 234.36C246.49 232.65 243.23 232.47 241.6 232.39C240.59 232.39 239.27 232.34 237.66 232.28C235.74 232.21 233.43 232.12 230.82 232.09C240.57 213.18 249.54 199.57 253.52 195.75C254.35 194.96 255.11 194.31 255.79 193.73C257.83 191.98 259.44 190.6 259.44 188.27C259.44 185.66 257.45 182.95 254.12 182.95C252.03 182.95 249.59 184.45 247.05 187.33C238.44 197.7 229.06 212.81 219.16 232.27C210.11 232.64 201.89 233.3 194.15 234.3C199.22 223.55 206.46 206.89 206.46 199.51C206.46 198.43 206.32 197.38 206.08 196.37C204.78 190.85 200.18 186.64 194.87 186.64C181.02 186.64 162.34 196.39 150.64 207.46C150 208.07 149.37 208.68 148.77 209.3C148.77 209.3 148.75 209.32 148.75 209.33C144.51 213.69 141.44 218.17 140.22 222.29C139.84 223.56 139.62 224.81 139.62 226C139.62 229.83 141.67 232.12 145.1 232.12C147.21 232.12 150.74 231.05 150.74 223.91C150.74 223.41 150.84 222.87 151.03 222.29C151.13 221.99 151.25 221.69 151.4 221.37C151.44 221.29 151.48 221.21 151.52 221.13C151.64 220.89 151.76 220.64 151.91 220.39C151.97 220.29 152.04 220.18 152.1 220.07C152.24 219.84 152.39 219.6 152.55 219.36C152.63 219.24 152.71 219.12 152.8 219.01C152.97 218.77 153.14 218.53 153.32 218.29C153.41 218.17 153.51 218.05 153.6 217.93C153.79 217.68 153.99 217.43 154.21 217.18C154.31 217.06 154.42 216.94 154.52 216.82C154.74 216.56 154.98 216.3 155.22 216.04C155.33 215.92 155.43 215.81 155.54 215.69C155.8 215.41 156.07 215.13 156.35 214.85C156.45 214.75 156.56 214.64 156.66 214.54C156.96 214.24 157.28 213.94 157.6 213.63C157.69 213.55 157.78 213.46 157.87 213.38C158.23 213.04 158.61 212.71 158.99 212.37C159.05 212.32 159.11 212.27 159.16 212.22C162.39 209.4 166.32 206.57 170.5 204.13C175.2 201.39 180.23 199.14 184.99 197.94C185.59 197.79 186.18 197.65 186.77 197.53C186.77 197.53 186.79 197.53 186.8 197.53C187.35 197.42 187.9 197.33 188.44 197.25C188.49 197.25 188.54 197.23 188.6 197.23C189.09 197.16 189.57 197.11 190.05 197.07C190.14 197.07 190.24 197.05 190.33 197.04C190.88 197 191.42 196.98 191.96 196.98C191.96 196.98 191.97 196.98 191.98 196.98C192.9 196.98 193.63 197.12 194.17 197.42C195.08 197.92 195.49 198.86 195.49 200.33C195.49 200.52 195.49 200.71 195.47 200.92C195.47 200.99 195.46 201.07 195.45 201.15C195.44 201.29 195.43 201.43 195.41 201.57C195.4 201.67 195.38 201.77 195.37 201.87C195.35 202 195.33 202.13 195.31 202.27C195.29 202.39 195.27 202.51 195.25 202.63C195.23 202.76 195.2 202.89 195.18 203.02C195.15 203.15 195.12 203.29 195.09 203.42C195.06 203.55 195.03 203.68 195 203.82C194.97 203.96 194.93 204.11 194.89 204.26C194.86 204.4 194.82 204.53 194.79 204.67C194.75 204.83 194.71 204.99 194.66 205.15C194.62 205.28 194.59 205.42 194.55 205.55C194.5 205.72 194.45 205.9 194.4 206.08C194.36 206.21 194.32 206.34 194.29 206.47C194.23 206.66 194.17 206.86 194.11 207.05C194.07 207.18 194.03 207.3 193.99 207.43C193.93 207.64 193.86 207.85 193.79 208.06C193.75 208.18 193.71 208.3 193.67 208.43C193.6 208.66 193.52 208.88 193.44 209.12C193.4 209.23 193.36 209.34 193.33 209.45C193.25 209.7 193.16 209.94 193.07 210.19C193.03 210.29 193 210.39 192.96 210.5C192.87 210.77 192.77 211.03 192.67 211.3C192.64 211.39 192.61 211.47 192.57 211.56C192.46 211.85 192.36 212.14 192.25 212.43C192.22 212.5 192.2 212.57 192.17 212.64C192.05 212.96 191.93 213.27 191.81 213.6C191.8 213.64 191.78 213.67 191.77 213.71C191.64 214.06 191.5 214.42 191.36 214.77C188.7 221.58 185.18 229.37 182.13 235.94C160.91 240.01 153.74 249.2 153.74 252.82C153.74 256.01 156.34 257.98 158.74 257.98C161.69 257.98 162.78 255.73 163.43 254.38C163.57 254.1 163.7 253.82 163.79 253.67C163.94 253.46 167.31 248.87 177.38 245.68C172.71 254.57 167.91 262.99 165.07 267.24L164.36 268.26C162.85 270.42 161.76 271.99 161.76 273.68C161.76 276.26 163.57 279 166.92 279C169.46 279 170.98 276.82 173.08 273.81L173.62 273.03C178.31 265.65 184.52 254.23 189.9 243.08C197.45 242.01 205.7 241.3 215.03 240.89C206.48 260.21 201.42 277.57 201.42 287.66C201.42 291.45 205.45 293.78 208.35 293.78C211.9 293.78 211.9 290.03 211.9 288.62C211.9 277.5 216.58 262.29 226.61 240.82C229.66 240.9 232.47 241.05 234.97 241.17C236.19 241.23 237.33 241.29 238.4 241.33C235.05 244.81 232.23 249.11 230 254.16C228.25 255.19 226.94 257.24 226.94 259.08C226.94 260.05 227.09 260.69 227.22 261.25C227.33 261.74 227.42 262.13 227.42 262.77C227.42 268.8 232.81 274.51 238.52 274.51C246.56 274.51 254.3 271.78 262.1 266.17C262.1 266.27 262.1 266.36 262.1 266.46C262.1 270.95 265.85 274.2 268.38 274.2C272.31 274.2 277.29 271.26 285.58 264.02C286.84 262.88 287.97 261.76 288.96 260.78C289.45 260.3 289.99 259.76 290.46 259.3C290.44 259.67 290.4 260.06 290.37 260.46C290.28 261.51 290.19 262.61 290.19 263.57C290.19 268.87 293.9 272.58 299.2 272.58C304.99 272.58 312.43 266.95 318.43 261.3C318.51 269.36 325.23 274.35 331.46 274.35C338 274.35 346.19 268.12 352.94 261.66C351.99 265.59 351.5 268.97 351.5 271.75C351.5 277.2 354.17 279.64 356.82 279.64C359.91 279.64 361.82 277.21 361.82 274.96C361.82 274.04 361.55 273.32 361.31 272.69C361.07 272.05 360.86 271.5 360.86 270.63C360.86 263.01 365.9 247.94 372.9 234.47C375.2 234.75 377.83 235 380.74 235C381.89 235 383.01 235 384.18 234.93C377.27 251.15 373.17 265.48 373.17 270.3C373.17 273.94 375.14 276.58 377.85 276.58C379.9 276.58 382.61 275.62 383.91 271.03C386.29 262.79 401.43 247.84 407.39 247.84C408.32 247.84 408.33 247.84 408.33 249.26C408.33 249.7 407.93 251.41 407.58 252.91C406.84 256.07 405.92 260 405.92 262.75C405.92 272.19 411.69 274.18 416.54 274.18C420.92 274.18 426.67 270.68 434.03 263.51C433.8 264.74 433.69 265.72 433.69 266.45C433.69 271.87 437.2 274.34 440.46 274.34C448.88 274.34 460.62 259.26 465.29 252.75C465.06 255.53 463.63 269.79 462.37 281.98C459.16 283.38 447.46 288.96 437.77 299.66C425.4 313.21 421.01 326.39 421.01 333.56C421.01 341.71 427.69 346.75 433.87 346.75C455.6 346.75 468.63 311.66 471.95 288.84C472.71 288.7 473.57 288.62 474.33 288.62C478.69 288.62 480.57 289.99 480.57 290.69C480.57 291.39 480.46 291.92 480.36 292.48C480.22 293.24 480.09 294.01 480.09 295.02C480.09 298.15 482.08 300.02 485.41 300.02C489.39 300.02 491.85 296.18 491.85 292.62C491.85 284 483.01 280.07 474.8 280.07ZM405.77 209.93C413.8 196.92 421.66 188.58 426 188.58C427.28 188.58 428.41 189.06 428.41 190.83C428.41 195 419.9 217 396.78 225.67C396.78 225.67 401.28 217.32 405.77 209.94V209.93ZM345.25 209.13C353.44 194.2 360.02 189.7 362.11 189.7C363.72 189.7 364.52 190.34 364.52 191.95C364.52 195.8 362.59 200.62 353.12 213.63C344.45 225.35 336.42 232.42 334.33 233.38C334.81 230.81 336.74 224.07 345.25 209.14V209.13ZM254.71 240.11C255.99 240.11 256.64 240.43 256.64 241.72C256.64 245.09 243.96 254.08 238.34 254.24C240.75 250.39 249.74 240.11 254.72 240.11H254.71ZM272.85 265C271.57 265 270.92 264.04 270.92 263.07C270.92 255.2 285.05 240.11 291.95 240.11C293.23 240.11 293.72 241.07 293.72 242.04C293.72 243.81 296.45 243.32 296.45 244.13C296.45 246.86 275.58 265 272.85 265ZM434.18 339.5C431.61 339.5 429.2 337.57 429.2 334.36C429.2 328.25 432.74 316.54 441.89 306.58C452.32 295.02 462.44 289.88 463.08 289.56C461.64 306.58 449.59 339.5 434.18 339.5Z" fill="#3A1A3D"/>
</svg>
